# xmcd
#
# Track frame offsets: 
#        150
#        20419
#        43198
#        60782
#        79400
#        92746
#        108604
#        122272
#        143588
#        153525
#        171297
#        194717
#        209221
#        212597
#
# Disc length: 3129 seconds
#
# Revision: 0
# Processed by: cddbd v1.5.2PL0 Copyright (c) Steve Scherf et al.
# Submitted via: ExactAudioCopy v0.99pb4
#
DISCID=c80c370e
DTITLE=Pepper, Jefferson - Christmas In Fallujah
DYEAR=2005
DGENRE=Christmas/Holiday
TTITLE0=Christmas In Fallujah
TTITLE1=M-16
TTITLE2=Bethlehem, PA
TTITLE3=Interstate Highway
TTITLE4=Stranded
TTITLE5=Back To 1999
TTITLE6=Christmas Tree
TTITLE7=Deceived
TTITLE8=Soldier's Joy (Traditional)
TTITLE9=Why?
TTITLE10=Armageddon For Sale
TTITLE11=This Land Is Your Land
TTITLE12=(Silence)
TTITLE13=Plastic Illuminated Snowman
EXTD=
EXTT0=
EXTT1=
EXTT2=
EXTT3=
EXTT4=
EXTT5=
EXTT6=
EXTT7=
EXTT8=
EXTT9=
EXTT10=
EXTT11=
EXTT12=
EXTT13=
PLAYORDER=
